<svg width="30" height="30" viewBox="0 0 30 30" fill="none" xmlns="http://www.w3.org/2000/svg">
<g id="cost-icon 1" clip-path="url(#clip0_8_139)">
<path id="Vector" d="M4.79523 25.5047C4.69044 25.4016 4.54501 25.3424 4.39675 25.3424C4.2485 25.3424 4.10305 25.4016 3.9982 25.5047C3.89335 25.6078 3.83304 25.7509 3.83304 25.8966C3.83304 26.0424 3.8933 26.1854 3.9982 26.2884C4.10305 26.3915 4.2485 26.4508 4.39675 26.4508C4.54501 26.4508 4.69044 26.3916 4.79523 26.2884C4.90008 26.1854 4.96047 26.0424 4.96047 25.8966C4.96047 25.7509 4.90015 25.6078 4.79523 25.5047Z" fill="#21406C"/>
<path id="Vector_2" d="M26.4675 10.4298C26.3626 10.3267 26.2177 10.2674 26.0689 10.2674C25.9207 10.2674 25.7752 10.3267 25.6703 10.4298C25.5656 10.5329 25.5052 10.6759 25.5052 10.8217C25.5052 10.9674 25.5655 11.1104 25.6703 11.2134C25.7752 11.3165 25.9207 11.3759 26.0689 11.3759C26.2177 11.3759 26.3626 11.3166 26.4675 11.2134C26.5728 11.1104 26.6332 10.9674 26.6332 10.8217C26.6332 10.6759 26.5728 10.5329 26.4675 10.4298Z" fill="#21406C"/>
<path id="Vector_3" d="M28.6964 0.452896C28.5905 0.348974 28.4471 0.290558 28.2976 0.290558L14.4305 0.291278C14.1192 0.291278 13.867 0.539468 13.867 0.84552V2.43049L8.52352 3.8382C8.22278 3.91746 8.04431 4.22135 8.12493 4.51699L10.8943 14.6786L8.49855 17.034C8.19364 16.5963 7.68168 16.3085 7.10257 16.3085H1.69109C0.758591 16.3085 0 17.0544 0 17.9711V27.0051C0 27.9218 0.758591 28.6677 1.69109 28.6677H7.10263C7.89482 28.6677 8.56124 28.1293 8.74388 27.4052L9.41414 27.9799C9.93157 28.4234 10.5945 28.6678 11.2811 28.6678H28.2978C28.609 28.6678 28.8614 28.4196 28.8614 28.1135V0.8448C28.8614 0.697814 28.802 0.556816 28.6964 0.452896ZM7.66623 27.0051C7.66623 27.3106 7.41334 27.5593 7.10252 27.5593H1.69103C1.38019 27.5593 1.12732 27.3107 1.12732 27.0051V17.9711C1.12732 17.6656 1.38019 17.4169 1.69103 17.4169H3.83309V23.8015C3.83309 24.1075 4.08551 24.3557 4.3968 24.3557C4.70808 24.3557 4.96052 24.1075 4.96052 23.8015V17.4169H7.10257C7.4134 17.4169 7.66628 17.6656 7.66628 17.9711L7.66623 27.0051ZM9.3598 4.76545L13.867 3.57803V5.63179L13.4891 5.73132C13.3446 5.76939 13.2216 5.86224 13.1468 5.98955C13.0721 6.11686 13.0518 6.2681 13.0905 6.4101C13.3071 7.20494 12.8257 8.02482 12.0173 8.23782C11.8727 8.27596 11.7494 8.36896 11.6747 8.49655C11.6 8.62408 11.5799 8.7756 11.6189 8.91772L13.8162 16.9175H12.6849L12.1018 14.6748C12.0833 14.6035 12.0508 14.5377 12.0073 14.4805L9.3598 4.76545ZM13.867 8.17348V12.8502L12.8388 9.10715C13.2683 8.88911 13.6197 8.56288 13.867 8.17348ZM21.9655 27.5593H11.2809C10.8669 27.5593 10.467 27.4119 10.155 27.1443L8.79366 25.9772V18.3115L11.2547 15.8918L11.7011 17.6089C11.7649 17.8543 11.9896 18.0259 12.2472 18.0259L23.33 18.0265C23.7652 18.0265 24.1192 18.3745 24.1192 18.8024C24.1192 19.2303 23.7652 19.5783 23.33 19.5783H17.6512C17.3399 19.5783 17.0875 19.8265 17.0875 20.1327C17.0875 20.4387 17.3399 20.6869 17.6512 20.6869H25.0945C25.5296 20.6869 25.8837 21.0349 25.8837 21.4628C25.8837 21.8907 25.5296 22.2387 25.0945 22.2387H17.6512C17.3399 22.2387 17.0875 22.4869 17.0875 22.7931C17.0875 23.0991 17.3399 23.3473 17.6512 23.3473H23.8883C24.3235 23.3473 24.6775 23.6953 24.6775 24.1232C24.6775 24.551 24.3235 24.899 23.8883 24.899H17.6512C17.3399 24.899 17.0875 25.1473 17.0875 25.4534C17.0875 25.7594 17.3399 26.0076 17.6512 26.0076H21.9655C22.4006 26.0076 22.7546 26.3556 22.7546 26.7835C22.7546 27.2111 22.4006 27.5593 21.9655 27.5593ZM27.734 27.5593H23.7113C23.8207 27.3224 23.882 27.0598 23.882 26.7834C23.882 26.5067 23.8207 26.2442 23.7113 26.0073H23.8883C24.9451 26.0073 25.8049 25.1621 25.8049 24.123C25.8049 23.82 25.7313 23.5336 25.6015 23.2797C26.413 23.0605 27.011 22.3292 27.011 21.4626C27.011 21.0423 26.8702 20.6537 26.6326 20.34V13.3156C26.6326 13.0096 26.3802 12.7614 26.0689 12.7614C25.7577 12.7614 25.5052 13.0096 25.5052 13.3156V19.6224C25.3728 19.5939 25.2355 19.5783 25.0943 19.5783H25.0759C25.1851 19.3416 25.2465 19.0791 25.2465 18.8024C25.2465 17.7633 24.3867 16.9181 23.33 16.9181H22.4238C23.386 16.5123 24.0618 15.5721 24.0618 14.4791C24.0618 13.0166 22.8517 11.8266 21.3641 11.8266C19.8765 11.8266 18.6663 13.0166 18.6663 14.4791C18.6663 15.5721 19.3421 16.5123 20.3043 16.9181H17.2229V6.37962C18.2298 6.16386 19.0245 5.38265 19.2439 4.3925H23.4841C23.7035 5.38265 24.4981 6.16386 25.5052 6.37962V8.10276C25.5052 8.40881 25.7576 8.657 26.0689 8.657C26.3802 8.657 26.6326 8.40881 26.6326 8.10276V5.8848C26.6326 5.57874 26.3802 5.33056 26.0689 5.33056C25.2319 5.33056 24.5512 4.66108 24.5512 3.83826C24.5512 3.5322 24.2988 3.28402 23.9875 3.28402H18.7406C18.4293 3.28402 18.1769 3.5322 18.1769 3.83826C18.1769 4.66115 17.496 5.33056 16.6591 5.33056C16.3478 5.33056 16.0954 5.57874 16.0954 5.8848V16.9179H14.9944V1.39965L27.734 1.39904V27.5593ZM21.3641 16.0232C20.4982 16.0232 19.7939 15.3305 19.7939 14.4792C19.7939 13.6279 20.4983 12.9352 21.3641 12.9352C22.23 12.9352 22.9345 13.6278 22.9345 14.4791C22.9345 15.3305 22.23 16.0232 21.3641 16.0232Z" fill="#098C2E"/>
</g>
<defs>
<clipPath id="clip0_8_139">
<rect width="30" height="30" fill="white"/>
</clipPath>
</defs>
</svg>
