<svg width="32" height="32" viewBox="0 0 32 32" fill="none" xmlns="http://www.w3.org/2000/svg">
<g clip-path="url(#clip0_5_120)">
<path d="M17 11C17 10.385 16.835 9.79 16.535 9.27C17.395 8.875 18 8.01 18 7V6.315L19.5 5.915V7.09C18.92 7.295 18.5 7.845 18.5 8.5C18.5 9.155 18.92 9.7 19.5 9.91V11H20.5V9.91C21.08 9.705 21.5 9.155 21.5 8.5C21.5 7.845 21.08 7.3 20.5 7.09V5.65L21.13 5.48C21.33 5.425 21.475 5.26 21.5 5.055C21.525 4.85 21.42 4.655 21.24 4.555L13.735 0.56C13.59 0.48 13.41 0.48 13.265 0.56L5.765 4.56C5.585 4.655 5.48 4.855 5.505 5.06C5.53 5.265 5.675 5.435 5.875 5.485L9.005 6.32V7.005C9.005 8.015 9.61 8.88 10.47 9.275C10.17 9.8 10.005 10.39 10.005 11.005C10.005 12.935 11.575 14.505 13.505 14.505C15.435 14.505 17.005 12.935 17.005 11.005L17 11ZM20 8C20.275 8 20.5 8.225 20.5 8.5C20.5 8.775 20.275 9 20 9C19.725 9 19.5 8.775 19.5 8.5C19.5 8.225 19.725 8 20 8ZM7.355 4.845L13.5 1.565L19.645 4.84L13.5 6.48L7.355 4.84V4.845ZM10 7V6.585L13.37 7.485C13.41 7.495 13.455 7.5 13.5 7.5C13.545 7.5 13.585 7.495 13.63 7.485L17 6.585V7C17 7.825 16.325 8.5 15.5 8.5H11.5C10.675 8.5 10 7.825 10 7ZM13.5 13.5C12.12 13.5 11 12.38 11 11C11 10.45 11.19 9.93 11.52 9.5H15.485C15.815 9.93 16.005 10.45 16.005 11C16.005 12.38 14.885 13.5 13.505 13.5H13.5Z" fill="#098C2E"/>
<path d="M30 28.5H2C1.725 28.5 1.5 28.275 1.5 28C1.5 27.725 1.725 27.5 2 27.5H24.5C25.05 27.5 25.5 27.05 25.5 26.5V25.08L26.475 22.16C26.49 22.11 26.5 22.055 26.5 22V11C26.5 10.175 25.825 9.5 25 9.5C24.175 9.5 23.5 10.175 23.5 11V14.5H11.485C10.09 14.5 8.75 15.16 7.91 16.265C6.81 17.71 5.5 20.4 5.5 25C5.5 25.275 5.725 25.5 6 25.5H8C8.275 25.5 8.5 25.275 8.5 25C8.5 23.435 9.005 21.71 9.5 20.39V25C9.5 25.275 9.725 25.5 10 25.5H17C17.275 25.5 17.5 25.275 17.5 25V18.435L23.5 17.58V22.005C23.5 22.06 23.51 22.11 23.525 22.165L24.5 25.085V26.505H2C1.175 26.505 0.5 27.18 0.5 28.005C0.5 28.83 1.175 29.505 2 29.505H30C30.275 29.505 30.5 29.73 30.5 30.005C30.5 30.28 30.275 30.505 30 30.505H16V31.505H30C30.825 31.505 31.5 30.83 31.5 30.005C31.5 29.18 30.825 28.505 30 28.505V28.5ZM23.5 16.565L16.93 17.505C16.685 17.54 16.5 17.75 16.5 18V24.5H10.5V18C10.5 17.77 10.345 17.57 10.12 17.515C9.895 17.46 9.665 17.565 9.56 17.765C9.48 17.915 7.695 21.33 7.515 24.5H6.505C6.595 20.48 7.74 18.14 8.705 16.87C9.36 16.015 10.395 15.5 11.485 15.5H23.5V16.565ZM25 23.42L24.695 22.5H25.31L25.005 23.42H25ZM24.5 11C24.5 10.725 24.725 10.5 25 10.5C25.275 10.5 25.5 10.725 25.5 11V11.5H24.5V11ZM24.5 17V12.5H25.5V21.5H24.5V17Z" fill="#098C2E"/>
<path d="M15 30.5H14V31.5H15V30.5Z" fill="#098C2E"/>
<path d="M13 30.5H12V31.5H13V30.5Z" fill="#098C2E"/>
<path d="M11 30.5H10V31.5H11V30.5Z" fill="#098C2E"/>
<path d="M9 30.5H8V31.5H9V30.5Z" fill="#098C2E"/>
<path d="M7 30.5H6V31.5H7V30.5Z" fill="#098C2E"/>
<path d="M5 30.5H4V31.5H5V30.5Z" fill="#098C2E"/>
<path d="M3 30.5H2V31.5H3V30.5Z" fill="#098C2E"/>
</g>
<defs>
<clipPath id="clip0_5_120">
<rect width="32" height="32" fill="white"/>
</clipPath>
</defs>
</svg>
