<?xml version="1.0" ?><svg data-name="Layer 1" id="Layer_1" viewBox="0 0 64 64" xmlns="http://www.w3.org/2000/svg"><path d="M34,22c0-1.23-.33-2.42-.93-3.46,1.72-.79,2.93-2.52,2.93-4.54v-1.37l3-.8v2.35c-1.16,.41-2,1.51-2,2.82s.84,2.4,2,2.82v2.18h2v-2.18c1.16-.41,2-1.51,2-2.82s-.84-2.4-2-2.82v-2.88l1.26-.34c.4-.11,.69-.44,.74-.85s-.16-.8-.52-1L27.47,1.12c-.29-.16-.65-.16-.94,0L11.53,9.12c-.36,.19-.57,.59-.52,1s.34,.75,.74,.85l6.26,1.67v1.37c0,2.02,1.21,3.75,2.93,4.54-.6,1.05-.93,2.23-.93,3.46,0,3.86,3.14,7,7,7s7-3.14,7-7Zm6-6c.55,0,1,.45,1,1s-.45,1-1,1-1-.45-1-1,.45-1,1-1ZM14.71,9.69L27,3.13l12.29,6.55-12.29,3.28-12.29-3.28Zm5.29,4.31v-.83l6.74,1.8c.08,.02,.17,.03,.26,.03s.17-.01,.26-.03l6.74-1.8v.83c0,1.65-1.35,3-3,3h-8c-1.65,0-3-1.35-3-3Zm7,13c-2.76,0-5-2.24-5-5,0-1.1,.38-2.14,1.04-3h7.93c.66,.86,1.04,1.9,1.04,3,0,2.76-2.24,5-5,5Z"/><path d="M60,57H4c-.55,0-1-.45-1-1s.45-1,1-1H49c1.1,0,2-.9,2-2v-2.84l1.95-5.84c.03-.1,.05-.21,.05-.32V22c0-1.65-1.35-3-3-3s-3,1.35-3,3v7H22.97c-2.79,0-5.47,1.32-7.15,3.53-2.2,2.89-4.82,8.27-4.82,17.47,0,.55,.45,1,1,1h4c.55,0,1-.45,1-1,0-3.13,1.01-6.58,2-9.22v9.22c0,.55,.45,1,1,1h14c.55,0,1-.45,1-1v-13.13l12-1.71v8.85c0,.11,.02,.21,.05,.32l1.95,5.84v2.84H4c-1.65,0-3,1.35-3,3s1.35,3,3,3H60c.55,0,1,.45,1,1s-.45,1-1,1h-28v2h28c1.65,0,3-1.35,3-3s-1.35-3-3-3Zm-13-23.87l-13.14,1.88c-.49,.07-.86,.49-.86,.99v13h-12v-13c0-.46-.31-.86-.76-.97-.45-.11-.91,.1-1.12,.5-.16,.3-3.73,7.13-4.09,13.47h-2.02c.18-8.04,2.47-12.72,4.4-15.26,1.31-1.71,3.38-2.74,5.56-2.74h24.03v2.13Zm3,13.71l-.61-1.84h1.23l-.61,1.84Zm-1-24.84c0-.55,.45-1,1-1s1,.45,1,1v1h-2v-1Zm0,12v-9h2v18h-2v-9Z"/><rect height="2" width="2" x="28" y="61"/><rect height="2" width="2" x="24" y="61"/><rect height="2" width="2" x="20" y="61"/><rect height="2" width="2" x="16" y="61"/><rect height="2" width="2" x="12" y="61"/><rect height="2" width="2" x="8" y="61"/><rect height="2" width="2" x="4" y="61"/></svg>