<svg width="62" height="62" viewBox="0 0 62 62" fill="none" xmlns="http://www.w3.org/2000/svg">
<g id="multi_ 1">
<g id="_x31_7_x2C__Responsive_x2C__adaptive_x2C__device_x2C__laptop_x2C__multi">
<g id="XMLID_858_">
<g id="XMLID_101_">
<path id="XMLID_507_" d="M22.3631 35.4913H21.2558C20.9957 35.4913 20.7703 35.2625 20.7136 34.9406L20.4181 33.2642C20.1218 33.1501 19.8348 32.9991 19.5595 32.8126L18.4118 33.7337C18.1921 33.9099 17.9055 33.8697 17.7218 33.6367L16.9396 32.6452C16.7558 32.4122 16.724 32.0488 16.863 31.7705L17.5892 30.3164C17.4425 29.9688 17.3235 29.6046 17.2332 29.2273L15.9108 28.8528C15.6569 28.7808 15.4763 28.4952 15.4763 28.1654V26.7618C15.4763 26.4321 15.6569 26.1464 15.9108 26.0744L17.2333 25.6999C17.3233 25.3243 17.4425 24.9605 17.5896 24.6115L16.8629 23.1567C16.7239 22.8783 16.7557 22.515 16.9395 22.2821L17.7217 21.2905C17.9057 21.0574 18.1927 21.0173 18.4122 21.1939L19.5589 22.1166C19.8318 21.9313 20.1189 21.7801 20.4177 21.6643L20.7133 19.9864C20.7701 19.6646 20.9955 19.4357 21.2556 19.4357H22.3629C22.623 19.4357 22.8483 19.6646 22.9051 19.9864L23.2008 21.6643C23.4997 21.7801 23.7868 21.9313 24.0596 22.1166L25.2062 21.1939C25.4259 21.0171 25.7129 21.0571 25.8968 21.2905L26.679 22.2821C26.8628 22.515 26.8946 22.8784 26.7556 23.1567L26.0289 24.6115C26.176 24.9605 26.2951 25.3243 26.3851 25.6999L27.7077 26.0744C27.9616 26.1464 28.1421 26.4321 28.1421 26.7618V28.1654C28.1421 28.4952 27.9616 28.7808 27.7077 28.8528L26.3851 29.2273C26.2951 29.6029 26.176 29.9667 26.0289 30.3157L26.7556 31.7705C26.8946 32.049 26.8628 32.4122 26.679 32.6452L25.8968 33.6367C25.713 33.8697 25.4262 33.9098 25.2068 33.7337L24.0597 32.8132C23.7855 32.9992 23.4981 33.1501 23.2005 33.2644L22.905 34.9408C22.8486 35.2625 22.6232 35.4913 22.3631 35.4913ZM21.7009 34.0829H21.9179L22.19 32.539C22.237 32.2723 22.4013 32.0643 22.6117 32.005C23.0252 31.8885 23.4161 31.6832 23.7735 31.3949C23.9551 31.2484 24.1871 31.2481 24.3689 31.394L25.4257 32.2422L25.5791 32.0477L24.91 30.7081C24.7951 30.4781 24.7951 30.1849 24.9099 29.9549C25.1387 29.4966 25.3008 29.0005 25.392 28.4805C25.4388 28.2139 25.6029 28.0056 25.8132 27.946L27.0312 27.6011V27.326L25.8132 26.9811C25.6029 26.9215 25.4388 26.7132 25.392 26.4466C25.3008 25.9266 25.1387 25.4305 24.9099 24.9722C24.7951 24.7422 24.7951 24.449 24.91 24.219L25.5791 22.8794L25.426 22.6854L24.3693 23.5357C24.1871 23.6823 23.9545 23.6819 23.7726 23.5347C23.4187 23.2482 23.0272 23.0419 22.6089 22.9215C22.3998 22.8612 22.2366 22.6537 22.1899 22.3882L21.9178 20.8443H21.7008L21.4287 22.3882C21.3819 22.6536 21.2188 22.8612 21.0097 22.9215C20.5913 23.0421 20.1998 23.2484 19.846 23.5347C19.664 23.6819 19.4313 23.6823 19.2492 23.5357L18.1926 22.6854L18.0395 22.8794L18.7086 24.219C18.8235 24.449 18.8235 24.7422 18.7087 24.9722C18.4799 25.4305 18.3178 25.9266 18.2266 26.4466C18.1798 26.7132 18.0157 26.9215 17.8053 26.9811L16.5873 27.326V27.6011L17.8053 27.946C18.0157 28.0056 18.1798 28.2139 18.2266 28.4805C18.3185 29.0047 18.4805 29.5002 18.7079 29.9532C18.8235 30.1833 18.8237 30.4774 18.7086 30.708L18.0395 32.0475L18.1929 32.2421L19.2497 31.3939C19.4312 31.2484 19.6625 31.2484 19.8439 31.3937C20.2055 31.6837 20.5968 31.8892 21.007 32.0049C21.2173 32.0642 21.3817 32.2722 21.4287 32.5388L21.7009 34.0829Z" fill="#098C2E"/>
</g>
<g id="XMLID_100_">
<path id="XMLID_504_" d="M21.8114 30.2773C20.5865 30.2773 19.5898 29.0161 19.5898 27.466C19.5898 25.9133 20.5864 24.6499 21.8114 24.6499C23.0342 24.6499 24.0291 25.9132 24.0291 27.466C24.0291 29.0161 23.0342 30.2773 21.8114 30.2773ZM21.8114 26.0584C21.199 26.0584 20.7009 26.6898 20.7009 27.466C20.7009 28.2395 21.199 28.8688 21.8114 28.8688C22.4216 28.8688 22.918 28.2395 22.918 27.466C22.918 26.6898 22.4216 26.0584 21.8114 26.0584Z" fill="#098C2E"/>
</g>
<g id="XMLID_99_">
<path id="XMLID_501_" d="M27.7169 45.4214H15.902C14.4112 45.4214 13.1983 43.8839 13.1983 41.9942V12.933C13.1983 11.0433 14.4112 9.50586 15.902 9.50586H27.7168C29.2077 9.50586 30.4206 11.0433 30.4206 12.933V41.994C30.4206 43.8839 29.2077 45.4214 27.7169 45.4214ZM15.902 10.9143C15.0239 10.9143 14.3095 11.8199 14.3095 12.933V41.994C14.3095 43.1071 15.0239 44.0128 15.902 44.0128H27.7168C28.5949 44.0128 29.3093 43.1071 29.3093 41.994V12.933C29.3093 11.8199 28.5949 10.9143 27.7168 10.9143H15.902Z" fill="#098C2E"/>
</g>
<g id="XMLID_98_">
<path id="XMLID_498_" d="M50.3095 59.5059H7.19835C5.29913 59.5059 3.75391 57.5473 3.75391 55.1397V52.6045C3.75391 50.1968 5.29913 48.2383 7.19835 48.2383H23.1984C23.5051 48.2383 23.7539 48.5535 23.7539 48.9425V51.0552H33.7539V48.9425C33.7539 48.5535 34.0026 48.2383 34.3095 48.2383H50.3095C52.2088 48.2383 53.7539 50.1968 53.7539 52.6045V55.1397C53.7539 57.5473 52.2088 59.5059 50.3095 59.5059ZM7.19835 49.6467C5.91168 49.6467 4.86502 50.9736 4.86502 52.6045V55.1397C4.86502 56.7705 5.91168 58.0974 7.19835 58.0974H50.3095C51.596 58.0974 52.6428 56.7705 52.6428 55.1397V52.6045C52.6428 50.9736 51.596 49.6467 50.3095 49.6467H34.865V51.7594C34.865 52.1484 34.6164 52.4636 34.3095 52.4636H23.1984C22.8916 52.4636 22.6428 52.1484 22.6428 51.7594V49.6467H7.19835Z" fill="#098C2E"/>
</g>
<g id="XMLID_97_">
<path id="XMLID_497_" d="M49.918 49.6467C49.6111 49.6467 49.3625 49.3315 49.3625 48.9425V18.3422C49.3625 15.4113 47.4814 13.027 45.1694 13.027H29.865C29.5581 13.027 29.3095 12.7116 29.3095 12.3228C29.3095 11.9339 29.5581 11.6185 29.865 11.6185H45.1692C48.094 11.6185 50.4735 14.6349 50.4735 18.3422V48.9425C50.4736 49.3315 50.2248 49.6467 49.918 49.6467Z" fill="#098C2E"/>
</g>
<g id="XMLID_96_">
<path id="XMLID_496_" d="M7.58991 49.6467C7.28313 49.6467 7.03435 49.3315 7.03435 48.9425V18.3422C7.03435 14.6347 9.4138 11.6185 12.3386 11.6185H13.7539C14.0607 11.6185 14.3095 11.9339 14.3095 12.3228C14.3095 12.7116 14.0607 13.027 13.7539 13.027H12.3386C10.0265 13.027 8.14546 15.4113 8.14546 18.3422V48.9425C8.14546 49.3315 7.89668 49.6467 7.58991 49.6467Z" fill="#098C2E"/>
</g>
<g id="XMLID_95_">
<path id="XMLID_495_" d="M49.764 45.4214H7.7438C7.43702 45.4214 7.18824 45.1061 7.18824 44.7171C7.18824 44.3281 7.43702 44.0129 7.7438 44.0129H49.764C50.0709 44.0129 50.3196 44.3281 50.3196 44.7171C50.3196 45.1061 50.0709 45.4214 49.764 45.4214Z" fill="#098C2E"/>
</g>
<g id="XMLID_94_">
<path id="XMLID_494_" d="M29.865 40.4918H13.7539C13.4471 40.4918 13.1983 40.1766 13.1983 39.7875C13.1983 39.3985 13.4471 39.0833 13.7539 39.0833H29.865C30.1719 39.0833 30.4206 39.3985 30.4206 39.7875C30.4206 40.1766 30.1719 40.4918 29.865 40.4918Z" fill="#098C2E"/>
</g>
<g id="XMLID_93_">
<path id="XMLID_493_" d="M29.865 15.8439H13.7539C13.4471 15.8439 13.1983 15.5285 13.1983 15.1397C13.1983 14.7508 13.4471 14.4354 13.7539 14.4354H29.865C30.1719 14.4354 30.4206 14.7508 30.4206 15.1397C30.4206 15.5285 30.1719 15.8439 29.865 15.8439Z" fill="#098C2E"/>
</g>
</g>
</g>
</g>
</svg>
