<svg width="47" height="55" viewBox="0 0 47 55" fill="none" xmlns="http://www.w3.org/2000/svg">
<path d="M23.5824 55L23.259 54.95C9.59873 51.8437 0.0625 40.2299 0.0625 26.7056V7.81753L1.01398 7.77659C8.94666 7.43492 16.5315 4.88643 22.9476 0.40759L23.5319 0L24.1162 0.40759C30.5343 4.8865 38.1184 7.43492 46.0485 7.77666L47 7.81753V26.7063C47 40.2306 37.4631 51.8443 23.8081 54.9495L23.5824 55ZM2.05451 9.64308V26.7057C2.05451 39.2759 10.8756 50.0791 23.5307 53.039C36.187 50.0778 45.0081 39.2754 45.0081 26.7057V9.64308C37.272 9.14399 29.8804 6.63962 23.5319 2.36299C17.1848 6.63895 9.79392 9.14399 2.05451 9.64308Z" fill="#098C2E"/>
<path d="M23.5644 47.6643L23.3393 47.6279C13.3422 45.3557 6.35706 36.8504 6.35706 26.945V13.1314L6.99117 13.1039C12.8336 12.8512 18.4185 10.9752 23.1415 7.678L23.5312 7.4061L23.921 7.678C28.6466 10.9757 34.2308 12.8517 40.0706 13.1039L40.7047 13.1314V26.9449C40.7047 36.8497 33.7195 45.3551 23.7184 47.6291L23.5644 47.6643ZM7.68511 14.349V26.9455C7.68511 36.2157 14.1949 44.1809 23.5306 46.357C32.871 44.1752 39.3768 36.2122 39.3768 26.9455V14.349C33.6671 13.9907 28.211 12.1435 23.5312 8.98206C18.8548 12.1435 13.3975 13.9907 7.68511 14.349Z" fill="#098C2E"/>
<path d="M27.9748 25.6563V23.2729C27.9748 20.9599 26.0338 19.0743 23.6508 19.0743H23.4117C21.0287 19.0743 19.0918 20.9599 19.0918 23.2729V25.6563H17.5122V36.1369H29.549V25.6563H27.9748ZM20.7611 23.2723C20.7611 21.855 21.951 20.7014 23.4118 20.7014H23.6509C25.1151 20.7014 26.3002 21.855 26.3002 23.2723V25.6557H20.7611V23.2723Z" fill="#098C2E"/>
</svg>
