<svg width="29" height="31" viewBox="0 0 29 31" fill="none" xmlns="http://www.w3.org/2000/svg">
<g id="time-icon 1">
<path id="Vector" d="M14.7576 19.2491C15.2723 19.211 15.7416 18.9614 16.0462 18.5629L20.6766 12.476C20.8186 12.2893 20.7974 12.0315 20.6252 11.8679C20.4532 11.7047 20.1822 11.6845 19.9857 11.819L13.5835 16.2235C13.1661 16.5122 12.9035 16.9585 12.8634 17.448C12.8234 17.9376 13.0098 18.4168 13.3743 18.7634C13.7062 19.0793 14.1537 19.2542 14.619 19.2542C14.665 19.2542 14.711 19.2525 14.7576 19.2491ZM13.8495 17.5213C13.8669 17.3064 13.9826 17.1104 14.1645 16.9843L18.0699 14.2977L15.2456 18.0104C15.1122 18.1849 14.9059 18.2944 14.6799 18.3114C14.4549 18.3256 14.2339 18.2512 14.073 18.0984C13.9138 17.9465 13.8317 17.7358 13.8495 17.5213Z" fill="#098C2E"/>
<path id="Vector_2" d="M25.8352 10.5846C25.8302 10.5747 25.8302 10.5643 25.8248 10.5545C25.8188 10.5451 25.8095 10.5399 25.803 10.531C25.303 9.71552 24.7116 8.95698 24.0399 8.26946L25.1023 7.25982L25.8016 7.92477L27.8993 5.92945L25.8016 3.93461L23.7032 5.92945L24.403 6.59487L23.3408 7.60453C22.6178 6.96591 21.8205 6.40301 20.9625 5.92757C20.953 5.92146 20.9476 5.91252 20.9377 5.90688C20.9273 5.90124 20.9165 5.90171 20.9061 5.89653C19.3765 5.05853 17.658 4.50033 15.8257 4.29576V3.73568H16.5676C17.2495 3.73568 17.8039 3.20852 17.8039 2.56003C17.8039 1.91154 17.2489 1.38438 16.567 1.38438H12.1162C11.4342 1.38438 10.8798 1.91154 10.8798 2.56003C10.8798 3.20852 11.4342 3.73568 12.1162 3.73568H12.858V4.2793C12.3239 4.33339 11.7908 4.41615 11.2636 4.53089C10.9975 4.58874 10.8309 4.84128 10.8922 5.09426C10.953 5.34727 11.2186 5.50621 11.4846 5.44743C11.9396 5.34821 12.399 5.27344 12.8595 5.22312L13.3901 5.18409C13.5524 5.17233 13.7017 5.16387 13.8471 5.15728V6.08699C13.8471 6.34705 14.0682 6.55724 14.3416 6.55724C14.6151 6.55724 14.8361 6.34705 14.8361 6.08699V5.16058C16.6961 5.24193 18.4487 5.71689 20.007 6.49846L19.5194 7.3012C19.3829 7.52645 19.464 7.81379 19.7004 7.94358C19.778 7.98637 19.8632 8.0066 19.9473 8.0066C20.1184 8.0066 20.2844 7.92241 20.3759 7.77147L20.8621 6.97061C22.4095 7.90408 23.724 9.15402 24.7056 10.6255L23.8634 11.0877C23.6275 11.2175 23.5464 11.5049 23.6834 11.7301C23.7754 11.8811 23.9411 11.9652 24.1122 11.9652C24.1963 11.9652 24.2813 11.945 24.3589 11.9022L25.2031 11.4385C26.0365 12.9415 26.5374 14.6354 26.6121 16.4322H25.6353C25.362 16.4322 25.1409 16.6424 25.1409 16.9025C25.1409 17.1625 25.362 17.3727 25.6353 17.3727H26.6121C26.5374 19.1697 26.0365 20.8634 25.2031 22.3665L24.3589 21.9028C24.1226 21.7729 23.8199 21.8492 23.6834 22.075C23.5469 22.3002 23.628 22.5875 23.8645 22.7172L24.7067 23.1796C23.725 24.6511 22.4105 25.9009 20.8631 26.8343L20.377 26.0335C20.24 25.8078 19.9368 25.7312 19.7014 25.8614C19.4645 25.9913 19.3835 26.279 19.5204 26.5038L20.008 27.3066C18.4497 28.0881 16.6971 28.5631 14.8371 28.6444V27.719C14.8371 27.4589 14.616 27.2487 14.3426 27.2487C14.0691 27.2487 13.848 27.4589 13.848 27.719V28.6481C13.0583 28.6223 12.266 28.5283 11.4861 28.3581C11.2201 28.2974 10.9545 28.4582 10.8937 28.7112C10.8323 28.9642 10.999 29.2168 11.2651 29.2746C12.2522 29.4909 13.2605 29.6 14.261 29.6C14.2853 29.6 14.3085 29.5987 14.3327 29.5981C14.3362 29.5981 14.3387 29.6 14.3416 29.6C14.3455 29.6 14.3491 29.5976 14.353 29.5976C16.7302 29.5821 18.9606 28.9717 20.8903 27.9174C20.9056 27.9108 20.9219 27.9075 20.9368 27.8991C20.9467 27.8935 20.9521 27.8845 20.9615 27.8785C22.9589 26.7715 24.628 25.1862 25.7946 23.2882C25.8041 23.2755 25.8159 23.2657 25.8242 23.2515C25.8302 23.2416 25.8298 23.2313 25.8347 23.2214C26.9642 21.3592 27.6135 19.2026 27.6135 16.903C27.6135 14.6034 26.9642 12.4468 25.8352 10.5846ZM25.801 5.2645L26.5003 5.92945L25.801 6.59487L25.1012 5.92945L25.801 5.2645ZM13.8471 4.21583V2.79517H12.1162C11.9802 2.79517 11.8689 2.68936 11.8689 2.56003C11.8689 2.43072 11.9802 2.3249 12.1162 2.3249H16.567C16.7031 2.3249 16.8143 2.43072 16.8143 2.56003C16.8143 2.68936 16.7031 2.79517 16.567 2.79517H14.8361V4.21583C14.664 4.20924 14.4999 4.20595 14.3416 4.20595C14.3277 4.20595 14.3119 4.20688 14.2981 4.20688C14.2857 4.20688 14.2734 4.20595 14.261 4.20595C14.1799 4.20595 14.0987 4.21112 14.0177 4.21254C13.9603 4.21394 13.9064 4.21347 13.8471 4.21583Z" fill="#098C2E"/>
<path id="Vector_3" d="M9.89084 7.96819H7.41814C7.14467 7.96819 6.92361 8.17838 6.92361 8.43844C6.92361 8.6985 7.14467 8.9087 7.41814 8.9087H9.89084C10.1643 8.9087 10.3854 8.6985 10.3854 8.43844C10.3854 8.17838 10.1643 7.96819 9.89084 7.96819Z" fill="#098C2E"/>
<path id="Vector_4" d="M9.89073 11.2599H4.94535C4.67186 11.2599 4.45081 11.4701 4.45081 11.7301C4.45081 11.9902 4.67186 12.2004 4.94535 12.2004H9.89073C10.1642 12.2004 10.3853 11.9902 10.3853 11.7301C10.3853 11.4701 10.1642 11.2599 9.89073 11.2599Z" fill="#098C2E"/>
<path id="Vector_5" d="M9.89074 14.5516H2.47266C2.19918 14.5516 1.97812 14.7618 1.97812 15.0219C1.97812 15.282 2.19918 15.4922 2.47266 15.4922H9.89074C10.1642 15.4922 10.3853 15.282 10.3853 15.0219C10.3853 14.7618 10.1642 14.5516 9.89074 14.5516Z" fill="#098C2E"/>
<path id="Vector_6" d="M9.89078 17.8436H0.494538C0.221059 17.8436 0 18.0538 0 18.3139C0 18.5739 0.221059 18.7841 0.494538 18.7841H9.89078C10.1642 18.7841 10.3853 18.5739 10.3853 18.3139C10.3853 18.0538 10.1642 17.8436 9.89078 17.8436Z" fill="#098C2E"/>
<path id="Vector_7" d="M9.89067 21.1354H3.46166C3.18819 21.1354 2.96713 21.3456 2.96713 21.6057C2.96713 21.8656 3.18819 22.0758 3.46166 22.0758H9.89067C10.1642 22.0758 10.3852 21.8656 10.3852 21.6057C10.3852 21.3456 10.1642 21.1354 9.89067 21.1354Z" fill="#098C2E"/>
<path id="Vector_8" d="M9.89073 24.4271H6.42896C6.15548 24.4271 5.93442 24.6373 5.93442 24.8974C5.93442 25.1575 6.15548 25.3677 6.42896 25.3677H9.89073C10.1642 25.3677 10.3853 25.1575 10.3853 24.8974C10.3853 24.6373 10.1642 24.4271 9.89073 24.4271Z" fill="#098C2E"/>
</g>
</svg>
